<svg viewBox="0 0 116 40" fill="none" xmlns="http://www.w3.org/2000/svg"><path fill-rule="evenodd" clip-rule="evenodd" d="M16 23h8v8h-8v-8z" fill="#FF46FB"/><path fill-rule="evenodd" clip-rule="evenodd" d="M8 23h8v8H8v-8z" fill="#CA41FC"/><path fill-rule="evenodd" clip-rule="evenodd" d="M0 23h8v8H0v-8z" fill="#8B48FE"/><path fill-rule="evenodd" clip-rule="evenodd" d="M24 15h-8v8h8v-8z" fill="#81E650"/><path fill-rule="evenodd" clip-rule="evenodd" d="M16 15H8v8h8v-8z" fill="#00D267"/><path fill-rule="evenodd" clip-rule="evenodd" d="M8 15H0v8h8v-8z" fill="#00C0FF"/><path fill-rule="evenodd" clip-rule="evenodd" d="M16 7h8v8h-8V7z" fill="#FFD200"/><path fill-rule="evenodd" clip-rule="evenodd" d="M8 7h8v8H8V7z" fill="#FF8E00"/><path fill-rule="evenodd" clip-rule="evenodd" d="M0 7h8v8H0V7z" fill="#FF5400"/><path fill-rule="evenodd" clip-rule="evenodd" d="M116 11.162a8.51 8.51 0 00-.427-.08 4.859 4.859 0 00-.518-.062 9.498 9.498 0 00-.64-.02c-.731 0-1.348.102-1.849.305a3.233 3.233 0 00-1.229.842 3.264 3.264 0 00-.691 1.248 5.275 5.275 0 00-.214 1.522v.527h-1.341v2.557h1.341v7.427h3.495v-7.427h1.707v-2.557h-1.707v-.304c0-.433.119-.74.356-.923a1.34 1.34 0 01.843-.274c.135 0 .254.007.356.02.101.014.193.027.274.04l.244.041v-2.882zm-15.229 8.026c.128-.304.284-.55.467-.74.183-.19.383-.325.599-.406.217-.081.42-.122.61-.122.23 0 .505.04.823.122.318.081.579.216.782.406v3.612c-.19.284-.423.477-.701.578a2.383 2.383 0 01-.823.152c-.244 0-.481-.043-.711-.131a1.697 1.697 0 01-.62-.416 2.11 2.11 0 01-.447-.761c-.115-.318-.172-.707-.172-1.167 0-.447.064-.822.193-1.127zm-3.404 3.48c.244.664.572 1.218.986 1.665a3.98 3.98 0 001.453 1.004 4.751 4.751 0 001.788.335c.447 0 .927-.105 1.442-.314.515-.21.948-.49 1.301-.843v.913h3.17V11.306h-3.495v4.606a2.838 2.838 0 00-1.016-.67c-.366-.135-.833-.202-1.402-.202-.515 0-1.044.111-1.585.334a4.536 4.536 0 00-1.484 1.005c-.447.446-.813 1.001-1.097 1.664-.284.663-.427 1.434-.427 2.313 0 .88.122 1.65.366 2.314zm-8.229-4.017c.23-.27.488-.46.772-.569.285-.108.562-.162.833-.162.244 0 .478.04.701.122.224.081.42.213.59.396.169.182.308.422.416.72.108.298.163.656.163 1.075 0 .488-.065.893-.193 1.218a2.492 2.492 0 01-.478.791c-.19.203-.4.345-.63.427-.23.08-.447.121-.65.121-.23 0-.491-.04-.782-.121a1.759 1.759 0 01-.742-.406V18.65zm.04 6.148a2.66 2.66 0 001.108.69c.4.122.81.183 1.23.183.541 0 1.09-.112 1.645-.335a4.411 4.411 0 001.504-1.014c.447-.454.813-1.025 1.097-1.715.285-.69.427-1.495.427-2.415 0-.839-.115-1.58-.345-2.222-.231-.643-.546-1.18-.945-1.613a3.973 3.973 0 00-1.402-.985 4.365 4.365 0 00-1.697-.334 4.3 4.3 0 00-1.575.314c-.535.21-.992.49-1.371.842v-.913h-3.17V29h3.495v-4.2zm-9.346.63h3.495V11.304h-3.495v14.123zm-5.852 0h3.495V11.304H73.98v14.123zm-12.466-2.76c.237.663.562 1.217.975 1.664a4 4 0 001.443 1.004 4.672 4.672 0 001.778.335c.447 0 .928-.101 1.443-.304a3.77 3.77 0 001.3-.832v.892h3.17V15.282h-3.13v.974c-.392-.446-.819-.761-1.28-.944a3.828 3.828 0 00-1.422-.273c-.515 0-1.046.111-1.595.334a4.509 4.509 0 00-1.493 1.005c-.447.446-.817 1.001-1.108 1.664-.291.663-.437 1.434-.437 2.313 0 .88.119 1.65.356 2.314zm3.404-3.48c.121-.305.274-.552.457-.741a1.651 1.651 0 011.188-.528c.23 0 .505.037.823.112.319.074.58.22.783.436v3.592c-.19.284-.424.477-.701.578a2.387 2.387 0 01-.823.152c-.244 0-.478-.043-.701-.131a1.715 1.715 0 01-.61-.416 2.007 2.007 0 01-.437-.761c-.108-.318-.162-.707-.162-1.167 0-.447.06-.822.183-1.127zm-20.584 6.24h3.495v-6.657c.149-.256.342-.45.579-.578.237-.128.464-.193.68-.193.38 0 .671.102.874.305.203.203.305.629.305 1.278v5.845h3.495v-6.657c.15-.256.342-.45.58-.578.236-.128.463-.193.68-.193.38 0 .67.102.874.305.203.203.304.629.304 1.278v5.845h3.495v-6.413c0-1.272-.27-2.253-.812-2.943s-1.369-1.034-2.48-1.034c-.69 0-1.293.162-1.808.486a4.38 4.38 0 00-1.24 1.137c-.568-1.082-1.53-1.623-2.885-1.623-.69 0-1.28.148-1.767.446a4.512 4.512 0 00-1.2 1.035h-.08l-.123-1.238h-2.966v10.146zM32 24.029c.352.31.779.588 1.28.831.434.203.972.39 1.615.558.644.17 1.406.254 2.286.254.949 0 1.779-.119 2.49-.355.71-.237 1.3-.558 1.767-.964.468-.406.816-.88 1.047-1.42.23-.541.345-1.117.345-1.725 0-1.137-.322-2.026-.965-2.669-.644-.642-1.52-1.126-2.631-1.45-.61-.177-1.128-.326-1.555-.447a8.526 8.526 0 01-1.036-.355c-.264-.115-.454-.237-.569-.366a.687.687 0 01-.173-.477c0-.351.163-.639.488-.862.325-.223.772-.335 1.341-.335.393 0 .789.075 1.189.223.4.15.768.312 1.107.487a12.4 12.4 0 011.138.71l1.544-3.125a10.652 10.652 0 00-1.463-.77 12.23 12.23 0 00-1.574-.528A7.44 7.44 0 0037.73 11c-.895 0-1.677.125-2.348.376-.67.25-1.23.581-1.676.994a4.045 4.045 0 00-1.006 1.42 4.248 4.248 0 00-.335 1.654c0 1.07.28 1.938.843 2.608.562.67 1.358 1.16 2.388 1.471.69.203 1.27.37 1.737.497.467.13.843.254 1.128.376.284.122.487.247.61.375a.693.693 0 01.182.497c0 .339-.197.616-.59.832-.392.217-.92.325-1.584.325-.434 0-.85-.081-1.25-.243a6.275 6.275 0 01-1.066-.548 8.219 8.219 0 01-1.057-.792L32 24.028z" fill="#1A1A1A"/></svg>